# xmcd
#
# Track frame offsets: 
#        150
#        15566
#        30804
#        46007
#        64106
#        78206
#        95917
#        112701
#        127950
#
# Disc length: 1912 seconds
#
# Revision: 0
# Processed by: cddbd v1.5.2PL0 Copyright (c) Steve Scherf et al.
# Submitted via: ExactAudioCopy v0.95b4
#
DISCID=5a077609
DTITLE=The Beatles  - Last Licks Live (Ebbetts 2005)
DYEAR=1900
DGENRE=
TTITLE0=Get Back #1
TTITLE1=Get Back #2
TTITLE2=Don't Let Me Down #1
TTITLE3=I've Got a Feeling #1
TTITLE4=One After 909
TTITLE5=Dig a Pony
TTITLE6=I've Got a Feeling #2
TTITLE7=Don't Let Me Down #2
TTITLE8=Get Back #3
EXTD=
EXTT0=
EXTT1=
EXTT2=
EXTT3=
EXTT4=
EXTT5=
EXTT6=
EXTT7=
EXTT8=
PLAYORDER=
